<?xml version="1.0" encoding="UTF-8" standalone="no"?>
<svg
   version="1.0"
   width="500.000000pt"
   height="500.000000pt"
   viewBox="0 0 500.000000 500.000000"
   preserveAspectRatio="xMidYMid meet"
  <g
     transform="translate(0.000000,500.000000) scale(0.100000,-0.100000)"
     fill="#000000"
     stroke="none"
     id="g1">
    <rect
       style="fill:#fff;stroke:none"
       id="rect1"
       width="406.50406"
       height="455.28461"
       x="51.68409"
       y="21.486643"
       transform="matrix(9.9999998,0,0,-9.9999998,0,5000)" />
    <path
       d="M615 4990 c-222 -33 -413 -162 -522 -352 -39 -67 -73 -178 -83 -271 -8 -62 -10 -687 -8 -1932 l3 -1840 23 -75 c77 -248 251 -421 497 -492 l80 -23 1895 0 1895 0 78 23 c203 58 356 182 443 357 86 176 79 -21 79 2115 0 2125 7 1937 -74 2105 -86 179 -235 303 -443 367 l-73 23 -1870 1 c-1029 1 -1893 -2 -1920 -6z m1473 -250 c80 -13 226 -68 298 -112 118 -71 203 -166 243 -272 37 -100 5 -181 -158 -401 -93 -126 -191 -275 -191 -290 0 -3 81 -5 180 -5 206 0 214 -2 279 -76 56 -63 84 -143 78 -216 -16 -182 -236 -373 -461 -401 -66 -8 -110 -8 -189 3 -177 23 -151 43 -222 -165 -163 -479 -275 -969 -291 -1275 -6 -101 -5 -107 23 -160 42 -82 82 -102 198 -97 71 2 102 8 148 30 154 71 347 241 484 428 l87 118 56 283 c32 156 54 286 51 289 -3 4 -30 14 -59 24 -71 23 -170 91 -205 140 -32 46 -48 130 -36 183 20 88 82 127 241 148 62 8 135 18 162 22 l48 7 28 80 c69 204 177 434 270 575 77 117 185 225 265 265 52 26 70 30 133 28 91 -3 177 -24 269 -67 135 -64 220 -144 270 -252 44 -97 17 -176 -123 -365 -87 -116 -174 -247 -174 -260 0 -5 76 -9 170 -9 l169 0 37 -32 c51 -45 94 -139 94 -204 0 -153 -190 -332 -387 -365 -68 -11 -227 -2 -299 17 -19 5 -26 -9 -82 -178 -127 -381 -204 -694 -237 -959 -21 -172 -20 -226 8 -279 33 -68 83 -92 174 -87 165 9 368 158 556 409 107 144 122 158 156 158 32 0 92 -42 115 -82 58 -96 0 -295 -134 -462 -214 -267 -577 -483 -910 -541 -223 -40 -399 13 -551 165 -120 120 -179 281 -179 489 0 61 -2 111 -5 111 -3 0 -33 -23 -67 -51 -218 -176 -497 -312 -750 -365 -101 -21 -273 -24 -348 -5 -30 7 -93 31 -140 54 -68 33 -102 58 -170 127 -99 99 -157 198 -192 332 -57 215 -4 722 167 1577 30 150 55 279 55 285 0 6 -32 22 -70 35 -123 42 -218 115 -256 196 -30 62 -33 168 -7 222 35 74 140 113 358 133 61 5 117 10 126 10 10 0 23 24 38 73 62 191 189 475 281 627 132 216 263 341 405 386 50 16 93 17 173 4z"
       id="path1" />
  </g>
</svg>
